# xmcd
#
# Track frame offsets: 
#        150
#        27455
#        58210
#        78385
#        109745
#        151365
#        177645
#        209470
#        240385
#        265315
#        293185
#        317850
#
# Disc length: 4696 seconds
#
# Revision: 6
# Processed by: cddbd v1.5.2PL0 Copyright (c) Steve Scherf et al.
# Submitted via: ExactAudioCopyFreeDBPlugin 1.0
#
DISCID=b112560c
DTITLE=Gary D. - D.Trance
DYEAR=1995
DGENRE=Hard Trance
TTITLE0=Nu Love - Agony
TTITLE1=Gary D. and Arne L. present Airtribe - Ignition
TTITLE2=General Base - Rhythm and Drums (Part One)
TTITLE3=Apple Juice - Raving Together
TTITLE4=Commander Tom - Are Am Eye
TTITLE5=Nature Party - Stoned Nation
TTITLE6=The Dentist - Destiny (Arena Of The God Mix)
TTITLE7=Mandala - Evolution
TTITLE8=The Apex - Kunda
TTITLE9=Van Den Mynk and Snyderman - Tendancy
TTITLE10=Sensitive - To The House
TTITLE11=Mac Acid - Mind Flow (Club Mix)
EXTD=YEAR: 1995
EXTT0=
EXTT1=
EXTT2=
EXTT3=
EXTT4=
EXTT5=
EXTT6=
EXTT7=
EXTT8=
EXTT9=
EXTT10=
EXTT11=
PLAYORDER=
